<svg width="30" height="30" viewBox="0 0 30 30" fill="none" xmlns="http://www.w3.org/2000/svg">
<g clip-path="url(#clip0_32_193)">
<path fill-rule="evenodd" clip-rule="evenodd" d="M15.7284 7.05235C15.6893 7.06268 15.6504 7.07352 15.6115 7.08486C14.535 7.39872 13.6015 8.07798 12.9717 9.0058C12.4732 9.7402 11.4738 9.93145 10.7394 9.43296C10.005 8.93446 9.81375 7.93501 10.3122 7.20061C11.3618 5.65428 12.9176 4.52215 14.7118 3.99906C15.1549 3.86984 15.6058 3.7798 16.0594 3.72858C15.2544 3.28508 14.3164 3.13724 13.4096 3.31578C12.5388 3.48726 11.6938 2.9203 11.5223 2.04941C11.3508 1.17853 11.9178 0.333533 12.7886 0.16205C14.5815 -0.190981 16.4415 0.15724 17.9852 1.13494C18.9581 1.7511 19.7587 2.58768 20.3296 3.56562C21.4091 3.16208 22.5752 3.00736 23.7392 3.12505C25.573 3.31043 27.276 4.15891 28.5282 5.51118C29.1315 6.1624 29.0925 7.17923 28.4412 7.78236C27.79 8.38546 26.773 8.34644 26.17 7.69523C25.4498 6.91758 24.4705 6.42963 23.416 6.32303L23.4045 6.32187C23.6955 6.63732 23.9592 6.98069 24.1913 7.34886C25.1691 8.90118 25.5055 10.7728 25.1292 12.5685C24.9473 13.4373 24.0953 13.9939 23.2266 13.8119C22.3579 13.6298 21.8012 12.778 21.9833 11.9093C22.1886 10.9298 22.0052 9.90891 21.4716 9.0622C21.0454 8.38568 20.4225 7.86267 19.6934 7.55847C18.7786 8.18373 18.0087 9.20753 17.4239 10.6237C16.8415 12.0343 16.4805 13.7505 16.3444 15.6214C17.5172 15.9182 18.6549 16.4065 19.7293 17.0738C21.3892 18.1048 22.8582 19.5378 24.0664 21.2749C23.376 21.4601 22.624 21.858 22.1215 22.653C21.9355 22.947 21.745 23.1874 21.5588 23.3783C20.7527 24.2038 19.3314 24.2038 18.5253 23.3783C18.3667 23.2157 18.2046 23.0171 18.0447 22.779C17.2151 21.5443 15.7826 21.2763 14.9334 21.2763C14.0842 21.2763 12.6517 21.5443 11.8221 22.779C11.6622 23.0171 11.5001 23.2157 11.3414 23.3783C10.5354 24.2038 9.11406 24.2038 8.30798 23.3783C8.12175 23.1874 7.93116 22.947 7.7452 22.653C6.95012 21.3951 5.53073 21.1315 4.71831 21.1313C4.27791 21.1312 3.6666 21.2079 3.07123 21.4721C4.30446 19.6461 5.82118 18.1436 7.54352 17.0738C9.2847 15.9923 11.1921 15.3811 13.1457 15.2932C13.3061 13.1968 13.7225 11.166 14.453 9.39698C14.797 8.56375 15.2189 7.77053 15.7284 7.05235ZM6.19313 24.6208C5.93863 24.027 5.35333 23.6434 4.70732 23.6468C4.06133 23.6503 3.48019 24.0403 3.23209 24.6368C3.04982 25.0751 2.77221 25.467 2.41945 25.7846C2.06669 26.1019 1.64763 26.337 1.19272 26.4722C0.341935 26.7253 -0.142684 27.6199 0.110292 28.4706C0.363269 29.3216 1.25805 29.8061 2.10883 29.5532C3.0214 29.2819 3.86205 28.8105 4.5697 28.1736C4.61871 28.1295 4.66699 28.0847 4.71454 28.0393C5.08515 28.4012 5.49859 28.7209 5.94793 28.9905C8.19122 30.3366 11.4581 30.3366 13.7014 28.9905C14.1501 28.7213 14.5631 28.4021 14.9333 28.0406C15.3036 28.4021 15.7165 28.7213 16.1653 28.9905C18.4086 30.3366 21.6754 30.3366 23.9187 28.9905C24.3681 28.7209 24.7815 28.4012 25.1522 28.0393C25.1997 28.0847 25.248 28.1295 25.297 28.1736C26.0046 28.8105 26.8452 29.2819 27.7579 29.5532C28.6086 29.8061 29.5035 29.3216 29.7563 28.4706C30.0094 27.6199 29.5247 26.7253 28.674 26.4722C28.219 26.337 27.7999 26.1019 27.4472 25.7846C27.0945 25.467 26.8167 25.0751 26.6346 24.6368C26.3865 24.0403 25.8053 23.6503 25.1592 23.6468C24.5134 23.6434 23.928 24.027 23.6736 24.6208C23.3852 25.2934 22.8923 25.8578 22.2649 26.2343C21.0396 26.9696 19.0444 26.9696 17.819 26.2343C17.1916 25.8578 16.6987 25.2934 16.4105 24.6208C16.1572 24.03 15.5762 23.6468 14.9333 23.6468C14.2905 23.6468 13.7094 24.03 13.4562 24.6208C13.1679 25.2934 12.6751 25.8578 12.0476 26.2343C10.8223 26.9696 8.82705 26.9696 7.60168 26.2343C6.97425 25.8578 6.48141 25.2934 6.19313 24.6208Z" fill="#003AB6"/>
</g>
<defs>
<clipPath id="clip0_32_193">
<rect width="30" height="30" fill="white"/>
</clipPath>
</defs>
</svg>
