<svg width="30" height="30" viewBox="0 0 30 30" fill="none" xmlns="http://www.w3.org/2000/svg">
<path fill-rule="evenodd" clip-rule="evenodd" d="M13.236 1.74149C12.6723 1.31309 11.98 1.08902 11.2725 1.10573H3.71538C2.88704 1.10573 2.09265 1.43478 1.50693 2.0205C0.921216 2.60622 0.592163 3.40062 0.592163 4.22894V25.7727C0.592163 26.6009 0.921216 27.3955 1.50693 27.9812C2.09265 28.5668 2.88704 28.8959 3.71538 28.8959H26.2851C27.1133 28.8959 27.9077 28.5668 28.4935 27.9812C29.0792 27.3955 29.4083 26.6009 29.4083 25.7727V8.33251C29.4083 7.50419 29.0792 6.70979 28.4935 6.12406C27.9077 5.53835 27.1133 5.2093 26.2851 5.2093H14.8109L14.3785 3.47982C14.2072 2.78755 13.8038 2.17302 13.236 1.74149ZM21.1293 16.2137C19.3541 16.2137 17.915 14.7746 17.915 12.9994C17.915 11.2242 19.3541 9.78511 21.1293 9.78511C22.9045 9.78511 24.3437 11.2242 24.3437 12.9994C24.3437 14.7746 22.9045 16.2137 21.1293 16.2137ZM11.9188 15.4598L23.6318 26.2174H3.71538C3.59746 26.2174 3.48436 26.1704 3.40096 26.0871C3.31758 26.0037 3.27074 25.8906 3.27074 25.7727V20.4208L10.3061 15.4598C10.5325 15.2749 10.8178 15.1736 11.1124 15.1736C11.407 15.1736 11.6924 15.2749 11.9188 15.4598Z" fill="#003AB6"/>
</svg>
